<svg width="128" height="128" viewBox="0 0 128 128" fill="none" xmlns="http://www.w3.org/2000/svg">
<path fill-rule="evenodd" clip-rule="evenodd" d="M128 0H0V128H128V0ZM82.7315 100.445C88.0046 98.0744 92.554 94.6737 96.3796 90.2424C96.7932 89.8302 97 89.3664 97 88.8512C97 87.8206 96.5347 86.8416 95.6042 85.9141C94.6736 84.8836 93.7947 84.3683 92.9676 84.3683C92.4506 84.3683 91.9853 84.5744 91.5718 84.9866C85.5748 90.8607 78.027 93.7977 68.9282 93.7977C61.4838 93.7977 55.7971 91.2214 51.8681 86.0687C47.939 80.813 45.9745 73.5992 45.9745 64.4275C45.9745 53.6069 47.8356 45.3111 51.5579 39.5401C55.2801 33.666 60.4498 30.729 67.0671 30.729C71.7199 30.729 75.3387 32.2233 77.9236 35.2118C80.5085 38.0973 81.8009 41.5496 81.8009 45.5687C81.8009 50.3092 80.0432 54.4313 76.5278 57.9351C73.1157 61.4389 68.3079 63.1908 62.1042 63.1908C59.3125 63.1908 57.0378 62.8817 55.2801 62.2634C53.5224 61.542 52.4884 61.1813 52.1782 61.1813C51.5579 61.1813 50.9892 61.542 50.4722 62.2634C50.0586 62.9847 49.8519 63.7576 49.8519 64.5821C49.8519 66.9523 51.8681 68.7557 55.9005 69.9924C59.9329 71.229 63.6034 71.8473 66.912 71.8473C73.1157 71.8473 78.4406 70.6107 82.8866 68.1374C87.3326 65.5611 90.6929 62.2634 92.9676 58.2443C95.3457 54.2252 96.5347 50.0515 96.5347 45.7233C96.5347 41.7042 95.5525 37.9943 93.588 34.5935C91.6235 31.0897 88.625 28.3073 84.5926 26.2462C80.6636 24.0821 75.8557 23 70.169 23C62.1042 23 55.0216 24.7519 48.9213 28.2557C42.9244 31.6565 38.2716 36.5 34.963 42.7863C31.6543 48.9695 30 56.1832 30 64.4275C30 72.2596 31.4475 79.1641 34.3426 85.1412C37.341 91.1183 41.5285 95.7557 46.9051 99.0534C52.2816 102.351 58.537 104 65.6713 104C71.7716 104 77.4583 102.815 82.7315 100.445Z" fill="#0500FF"/>
</svg>
