<svg xmlns="http://www.w3.org/2000/svg" width="1141.488" height="364.15" viewBox="0 0 1141.488 364.15"><g transform="translate(-1.25 -2.837)"><path d="M554.1,364.579H676.955l9.1-65.979h38.675l9.1,65.979H858.967L792.988,2.838H626.9ZM856.688,43.788V309.975l79.629,54.6H1056.9l70.529-54.6v-136.5H988.647v68.25h15.925v54.6l-27.3,0V68.817h27.3v65.975H1127.43V41.513L1070.551,2.838H913.567ZM1.25,50.613V166.642l74.321,57,69.008-.121V298.6h-22.75V248.55H1.25v70.525l61.429,45.5H206.008l63.7-45.5V203.046l-82.088-61.375-65.8.2v-68.5h22.75v45.5H269.713V50.613l-72.8-47.775H67.229Zm550.575-2.275-59.154-45.5h-145.6L285.638,50.613V316.8l68.254,47.779H492.671L554.1,316.8V214.421H433.521V298.6h-27.3V71.088h27.3v70.529h118.3Zm154.708,65.979h-4.55L690.609,228.071h31.85Z" fill="#b11e25" fill-rule="evenodd"/><path d="M1133.093,358.154c0,.063-.1.117-.3.146a24.847,24.847,0,0,1-2.846.092,24.4,24.4,0,0,1-2.658-.092,1.384,1.384,0,0,1-.371-.075.663.663,0,0,1-.213-.3c-.146-.388-.367-.967-.654-1.733q-.581-1.488-1.825-4.4a1.3,1.3,0,0,0-1.237-.642c.3.021-.213.033-1.533.033-.15,0-.225.246-.225.758q0,1.012.183,3.029c.129,1.337.192,2.354.192,3.025,0,.171-.046.271-.133.3-.142.013-.279.021-.421.029-.588.042-1.5.063-2.746.063a19.054,19.054,0,0,1-2.567-.092c-.287-.062-.429-.212-.429-.462q0-1.644.154-4.95t.158-4.971q0-6.313-.288-9.85l-.017-.208c0-.167.15-.279.475-.342s1.846-.121,4.558-.179q2.756-.056,4.4-.058a9.312,9.312,0,0,1,5.55,1.538,5.751,5.751,0,0,1,2.429,5,8.123,8.123,0,0,1-.625,3.479,7.091,7.091,0,0,1-2.312,2.521c-.229.154-.342.308-.342.446q0-.012,1.817,3.742A26.385,26.385,0,0,1,1133.093,358.154Zm-6.271-13.383a2.665,2.665,0,0,0-1.192-2.521,5.9,5.9,0,0,0-2.892-.542c-.946,0-1.45.15-1.508.433a26,26,0,0,0-.092,2.921c0,.229.008.571.017,1.021s.017.779.017,1c0,.05.158.1.479.146a12.731,12.731,0,0,0,1.908.137Q1126.822,347.367,1126.822,344.771Zm-2.854-15.325a18.771,18.771,0,1,1-18.771,18.771A18.771,18.771,0,0,1,1123.968,329.446Zm0,3.908a14.86,14.86,0,1,1-14.858,14.863A14.864,14.864,0,0,1,1123.968,333.354Z" fill="#b11e25" fill-rule="evenodd"/></g></svg>